<svg width="34" height="34" viewBox="0 0 34 34" fill="none" xmlns="http://www.w3.org/2000/svg">
<g id="ic:sharp-apple">
<g id="Icon">
<path id="Vector" d="M5.85412 5.72758C5.57228 6.01523 5.40918 6.46308 5.40918 7.04307V27.7307C5.40918 28.3107 5.57228 28.7586 5.85412 29.0462L5.92368 29.1094L17.8136 17.5214V17.2478L5.92368 5.65976L5.85412 5.72758Z" fill="#EAEDEE"/>
<path id="Vector_2" d="M23.2116 21.386L19.2527 17.5214V17.2477L23.2164 13.3831L23.3051 13.4334L27.9992 16.0375C29.3388 16.7765 29.3388 17.9926 27.9992 18.7363L23.3051 21.3357L23.2116 21.386Z" fill="#EAEDEE"/>
<path id="Vector_3" d="M22.5852 22.0552L18.5327 18.1041L6.57324 29.7657C7.01818 30.2218 7.74376 30.2767 8.56889 29.8207L22.5852 22.0552Z" fill="#EAEDEE"/>
<path id="Vector_4" d="M22.5852 12.7137L8.56889 4.94818C7.74376 4.49682 7.01818 4.55177 6.57324 5.00781L18.5327 16.6648L22.5852 12.7137Z" fill="#EAEDEE"/>
</g>
</g>
</svg>
