<svg width="34" height="34" viewBox="0 0 34 34" fill="none" xmlns="http://www.w3.org/2000/svg">
<g id="ic:sharp-apple">
<path id="Vector" d="M24.0844 28.3435C22.6961 29.6894 21.1802 29.4769 19.7211 28.8394C18.1769 28.1877 16.7602 28.1594 15.1311 28.8394C13.0911 29.7177 12.0144 29.4627 10.7961 28.3435C3.88275 21.2177 4.90275 10.366 12.7511 9.96936C14.6636 10.0685 15.9952 11.0177 17.1144 11.1027C18.7861 10.7627 20.3869 9.78519 22.1719 9.91269C24.3111 10.0827 25.9261 10.9327 26.9886 12.4627C22.5686 15.1119 23.6169 20.9344 27.6686 22.5635C26.8611 24.6885 25.8127 26.7994 24.0702 28.3577L24.0844 28.3435ZM16.9727 9.88436C16.7602 6.72519 19.3244 4.11853 22.2711 3.86353C22.6819 7.51853 18.9561 10.2385 16.9727 9.88436Z" fill="#EAEDEE"/>
</g>
</svg>
