<svg width="150" height="42" viewBox="0 0 150 42" fill="none" xmlns="http://www.w3.org/2000/svg">
<g id="Logo Type RopBop">
<g id="Vector">
<path d="M33.5181 27.6176C33.5181 25.9092 32.8395 24.2709 31.6315 23.0629C30.4235 21.8549 28.7851 21.1763 27.0768 21.1763H20.6355V27.6176C20.6355 29.3259 21.3142 30.9643 22.5221 32.1722C23.7301 33.3802 25.3685 34.0588 27.0768 34.0588C28.7851 34.0588 30.4235 33.3802 31.6315 32.1722C32.8395 30.9643 33.5181 29.3259 33.5181 27.6176Z" fill="white"/>
<path d="M33.5181 13.1891C33.5181 14.8974 32.8395 16.5358 31.6315 17.7438C30.4235 18.9517 28.7851 19.6304 27.0768 19.6304H20.6355V13.1891C20.6355 11.4808 21.3142 9.84239 22.5221 8.63441C23.7301 7.42644 25.3685 6.7478 27.0768 6.7478C28.7851 6.7478 30.4235 7.42644 31.6315 8.63441C32.8395 9.84239 33.5181 11.4808 33.5181 13.1891Z" fill="white"/>
<path d="M6.20703 13.1891C6.20703 11.4808 6.88567 9.84241 8.09364 8.63444C9.30162 7.42646 10.94 6.74783 12.6483 6.74783C14.3567 6.74783 15.995 7.42646 17.203 8.63444C18.411 9.84241 19.0896 11.4808 19.0896 13.1891C19.0896 14.8974 18.411 16.5358 17.203 17.7438C15.995 18.9518 14.3567 19.6304 12.6483 19.6304C10.94 19.6304 9.30162 18.9518 8.09364 17.7438C6.88567 16.5358 6.20703 14.8974 6.20703 13.1891Z" fill="white"/>
<path d="M6.20703 21.5177C6.20703 21.3291 6.35988 21.1763 6.54842 21.1763H18.7482C18.9368 21.1763 19.0896 21.3291 19.0896 21.5177V33.7175C19.0896 33.906 18.9368 34.0589 18.7482 34.0589H6.54842C6.35988 34.0589 6.20703 33.906 6.20703 33.7175V21.5177Z" fill="white"/>
<path d="M54.2342 29.8533L50.2694 22.657H49.156V29.8533H44.5124V10.7899H52.3061C53.8087 10.7899 55.0851 11.0524 56.1351 11.5774C57.2032 12.1024 57.9998 12.8266 58.5248 13.7499C59.0498 14.6551 59.3123 15.6689 59.3123 16.7914C59.3123 18.0586 58.9503 19.1901 58.2261 20.1858C57.5201 21.1816 56.47 21.8876 55.076 22.304L59.4753 29.8533H54.2342ZM49.156 19.3712H52.0346C52.8854 19.3712 53.5191 19.163 53.9355 18.7466C54.37 18.3302 54.5872 17.7418 54.5872 16.9814C54.5872 16.2573 54.37 15.687 53.9355 15.2706C53.5191 14.8542 52.8854 14.646 52.0346 14.646H49.156V19.3712Z" fill="white"/>
<path d="M69.125 30.0706C67.6404 30.0706 66.3007 29.7538 65.1059 29.1201C63.9291 28.4865 62.9968 27.5813 62.3088 26.4045C61.639 25.2278 61.3041 23.8519 61.3041 22.2768C61.3041 20.7199 61.648 19.3531 62.336 18.1763C63.0239 16.9814 63.9653 16.0672 65.1602 15.4336C66.355 14.7999 67.6947 14.4831 69.1793 14.4831C70.6638 14.4831 72.0035 14.7999 73.1983 15.4336C74.3932 16.0672 75.3346 16.9814 76.0226 18.1763C76.7105 19.3531 77.0545 20.7199 77.0545 22.2768C77.0545 23.8338 76.7014 25.2097 75.9954 26.4045C75.3074 27.5813 74.357 28.4865 73.144 29.1201C71.9492 29.7538 70.6095 30.0706 69.125 30.0706ZM69.125 26.0515C70.012 26.0515 70.7634 25.7256 71.3789 25.0739C72.0125 24.4222 72.3294 23.4898 72.3294 22.2768C72.3294 21.0639 72.0216 20.1315 71.4061 19.4798C70.8086 18.828 70.0664 18.5022 69.1793 18.5022C68.2741 18.5022 67.5228 18.828 66.9253 19.4798C66.3279 20.1134 66.0292 21.0458 66.0292 22.2768C66.0292 23.4898 66.3188 24.4222 66.8982 25.0739C67.4956 25.7256 68.2379 26.0515 69.125 26.0515Z" fill="white"/>
<path d="M84.1617 16.8457C84.6143 16.1396 85.2389 15.5693 86.0354 15.1348C86.832 14.7003 87.7644 14.4831 88.8325 14.4831C90.0817 14.4831 91.2132 14.7999 92.227 15.4336C93.2408 16.0672 94.0374 16.9724 94.6167 18.1491C95.2141 19.3259 95.5128 20.6928 95.5128 22.2497C95.5128 23.8066 95.2141 25.1825 94.6167 26.3774C94.0374 27.5541 93.2408 28.4684 92.227 29.1201C91.2132 29.7538 90.0817 30.0706 88.8325 30.0706C87.7825 30.0706 86.8501 29.8533 86.0354 29.4188C85.2389 28.9844 84.6143 28.4231 84.1617 27.7352V37.0768H79.518V14.7003H84.1617V16.8457ZM90.7877 22.2497C90.7877 21.091 90.4619 20.1858 89.8101 19.5341C89.1765 18.8643 88.389 18.5293 87.4475 18.5293C86.5242 18.5293 85.7367 18.8643 85.085 19.5341C84.4513 20.2039 84.1345 21.1182 84.1345 22.2768C84.1345 23.4355 84.4513 24.3497 85.085 25.0196C85.7367 25.6894 86.5242 26.0244 87.4475 26.0244C88.3708 26.0244 89.1584 25.6894 89.8101 25.0196C90.4619 24.3316 90.7877 23.4083 90.7877 22.2497Z" fill="white"/>
<path d="M109.49 20.0772C110.595 20.3126 111.482 20.8647 112.152 21.7337C112.821 22.5846 113.156 23.5622 113.156 24.6666C113.156 26.2597 112.595 27.527 111.473 28.4684C110.368 29.3917 108.82 29.8533 106.829 29.8533H97.949V10.7899H106.53C108.467 10.7899 109.979 11.2334 111.065 12.1205C112.17 13.0076 112.722 14.2115 112.722 15.7323C112.722 16.8547 112.423 17.7871 111.826 18.5293C111.246 19.2716 110.468 19.7876 109.49 20.0772ZM102.593 18.5022H105.634C106.395 18.5022 106.974 18.3392 107.372 18.0134C107.789 17.6694 107.997 17.1715 107.997 16.5198C107.997 15.8681 107.789 15.3702 107.372 15.0262C106.974 14.6822 106.395 14.5103 105.634 14.5103H102.593V18.5022ZM106.014 26.1058C106.793 26.1058 107.39 25.9338 107.807 25.5899C108.241 25.2278 108.458 24.7118 108.458 24.042C108.458 23.3721 108.232 22.8471 107.779 22.4669C107.345 22.0868 106.739 21.8967 105.96 21.8967H102.593V26.1058H106.014Z" fill="white"/>
<path d="M122.747 30.0706C121.263 30.0706 119.923 29.7538 118.728 29.1201C117.551 28.4865 116.619 27.5813 115.931 26.4045C115.261 25.2278 114.926 23.8519 114.926 22.2768C114.926 20.7199 115.27 19.3531 115.958 18.1763C116.646 16.9814 117.588 16.0672 118.782 15.4336C119.977 14.7999 121.317 14.4831 122.802 14.4831C124.286 14.4831 125.626 14.7999 126.821 15.4336C128.016 16.0672 128.957 16.9814 129.645 18.1763C130.333 19.3531 130.677 20.7199 130.677 22.2768C130.677 23.8338 130.324 25.2097 129.618 26.4045C128.93 27.5813 127.979 28.4865 126.766 29.1201C125.571 29.7538 124.232 30.0706 122.747 30.0706ZM122.747 26.0515C123.634 26.0515 124.386 25.7256 125.001 25.0739C125.635 24.4222 125.952 23.4898 125.952 22.2768C125.952 21.0639 125.644 20.1315 125.028 19.4798C124.431 18.828 123.689 18.5022 122.802 18.5022C121.896 18.5022 121.145 18.828 120.548 19.4798C119.95 20.1134 119.651 21.0458 119.651 22.2768C119.651 23.4898 119.941 24.4222 120.52 25.0739C121.118 25.7256 121.86 26.0515 122.747 26.0515Z" fill="white"/>
<path d="M137.784 16.8457C138.237 16.1396 138.861 15.5693 139.658 15.1348C140.454 14.7003 141.387 14.4831 142.455 14.4831C143.704 14.4831 144.835 14.7999 145.849 15.4336C146.863 16.0672 147.66 16.9724 148.239 18.1491C148.836 19.3259 149.135 20.6928 149.135 22.2497C149.135 23.8066 148.836 25.1825 148.239 26.3774C147.66 27.5541 146.863 28.4684 145.849 29.1201C144.835 29.7538 143.704 30.0706 142.455 30.0706C141.405 30.0706 140.472 29.8533 139.658 29.4188C138.861 28.9844 138.237 28.4231 137.784 27.7352V37.0768H133.14V14.7003H137.784V16.8457ZM144.41 22.2497C144.41 21.091 144.084 20.1858 143.432 19.5341C142.799 18.8643 142.011 18.5293 141.07 18.5293C140.147 18.5293 139.359 18.8643 138.707 19.5341C138.074 20.2039 137.757 21.1182 137.757 22.2768C137.757 23.4355 138.074 24.3497 138.707 25.0196C139.359 25.6894 140.147 26.0244 141.07 26.0244C141.993 26.0244 142.781 25.6894 143.432 25.0196C144.084 24.3316 144.41 23.4083 144.41 22.2497Z" fill="white"/>
</g>
</g>
</svg>
