<svg width="1440" height="684" viewBox="0 0 1440 684" fill="none" xmlns="http://www.w3.org/2000/svg">
<path d="M-10.6812 1C312.652 50.7436 761.023 616.125 719.646 812.725C692.513 941.607 374.628 938.712 287.78 961.956C169.345 993.611 393.599 875.108 439.272 738.11C493.538 575.313 411.167 147.337 672.479 222.585C900.531 288.292 949.913 501.104 1113.39 496.175C1261.24 491.653 1376.42 313.028 1450.29 163.797M-10.7047 14.0466C299.062 69.5107 730.407 617.052 695.926 805.422C673.315 928.832 372.253 924.717 291.895 945.609C180.492 974.528 395.181 860.638 440.47 729.202C494.736 571.605 419.849 162.034 672.117 234.592C897.162 299.145 942.587 516.909 1107.53 517.226C1255.65 516.955 1375.38 342.196 1452.5 196.153M-10.7313 27.0245C285.469 88.2092 699.788 617.866 672.226 798.051C654.137 915.988 369.875 910.652 296.006 929.193C191.612 955.286 396.759 846.099 441.664 720.202C495.93 567.806 428.55 176.685 671.751 246.53C893.788 309.953 935.257 533.234 1101.69 538.208C1250.07 542.73 1374.33 371.318 1454.74 228.441M-10.7313 40.094C271.903 107.022 669.196 618.703 648.53 790.77C634.963 903.168 367.501 896.679 300.121 912.868C202.691 935.976 398.365 831.56 442.863 711.226C497.287 564.007 437.255 191.337 671.412 258.446C890.42 320.761 927.886 549.333 1095.82 559.169C1244.44 567.964 1373.27 400.464 1456.95 260.707M-10.7523 53.1177C258.451 125.766 638.583 619.426 624.835 783.444C615.791 890.28 365.151 882.638 304.26 896.362C213.817 916.712 399.994 817.044 444.063 702.249C498.577 560.231 445.962 206.011 671.052 270.384C887.052 331.569 920.539 565.183 1090.01 580.151C1238.83 593.288 1372.28 429.586 1459.19 292.995M-10.7748 66.1414C244.907 144.533 607.968 620.104 601.117 776.119C596.595 877.324 362.8 868.596 308.376 879.97C224.987 897.38 401.668 802.505 445.261 693.273C499.889 556.433 454.667 220.708 670.713 282.345C883.661 342.422 913.168 581.146 1084.15 601.157C1233.22 618.612 1371.31 458.709 1461.43 325.306M-10.7748 79.1882C231.364 163.3 577.33 620.444 577.421 768.816C577.421 864.301 360.358 854.51 312.491 863.555C236.112 877.958 403.341 787.989 446.459 684.319C501.223 552.634 463.35 235.338 670.306 294.307C880.246 353.23 905.729 597.064 1078.27 622.162C1227.5 643.869 1370.15 487.922 1463.63 357.617M-10.7978 92.2114C217.797 182.044 546.647 620.783 553.724 761.489C558.247 851.209 358.142 840.401 316.628 847.161C247.236 858.467 405.081 773.473 447.771 675.32C502.715 548.7 472.055 250.419 670.102 306.222C876.9 364.49 898.47 612.914 1072.57 643.122C1222.1 669.079 1369.27 517.045 1466 389.882M-10.8185 105.236C204.255 200.812 515.876 620.987 530.008 754.164C538.916 838.027 355.905 826.27 320.745 830.747C258.408 838.706 406.824 758.958 448.88 666.389C503.983 545.015 480.535 265.162 669.652 318.184C873.42 375.367 891.033 628.742 1066.63 664.128C1216.36 694.291 1368.14 546.213 1468.13 422.193M-10.8185 118.259C190.711 219.555 485.012 621.009 506.312 746.837C519.516 824.777 353.689 812.069 324.861 814.353C269.6 818.717 408.52 744.441 450.079 657.412C505.43 541.215 489.331 279.813 669.403 330.167C870.141 386.264 883.775 644.569 1060.89 685.155C1210.84 719.501 1367.22 575.38 1470.48 454.526M-10.841 131.283C177.167 238.322 453.968 620.896 482.616 739.512C499.981 811.459 351.654 797.825 328.863 797.96C280.838 798.232 410.261 729.947 451.164 648.436C506.787 537.394 497.901 294.532 668.838 342.105C866.523 397.14 876.178 660.329 1054.83 706.138C1205.01 744.577 1365.95 604.526 1472.47 486.814M-10.8637 144.329C163.623 257.067 422.72 620.647 458.92 732.209C480.287 798.074 349.122 787.221 333.113 781.545C292.685 786.067 412.251 715.454 452.475 639.482C508.414 533.596 506.741 309.207 668.589 354.067C863.267 407.993 868.943 676.066 1049.08 727.144C1199.51 769.765 1365.02 633.694 1474.82 519.125M-10.8637 157.353C150.057 275.833 391.155 620.307 435.201 724.882C460.389 784.665 346.815 773.45 337.229 765.152C303.9 767.232 414.263 700.983 453.674 630.505C509.997 529.797 515.424 323.881 668.227 365.959C859.876 418.801 861.594 691.735 1043.25 748.081C1193.93 794.817 1363.98 662.793 1477.06 551.367M-10.8847 170.377C136.515 294.578 359.253 619.992 411.506 717.557C440.267 771.28 344.488 759.681 341.413 748.737C315.162 748.353 416.323 686.513 454.942 621.552C511.717 525.999 524.198 338.533 667.957 377.966C856.576 429.7 854.338 707.473 1037.48 769.132C1188.41 819.938 1363.08 692.007 1479.34 583.724M-10.9116 183.4C122.967 313.344 326.961 619.787 387.806 710.23C419.913 757.962 342.178 745.91 345.456 732.344C326.305 729.472 418.308 672.086 456.068 612.507C513.386 522.064 532.831 353.116 667.523 389.836C853.135 440.462 846.94 723.051 1031.56 790.046C1182.75 844.945 1361.92 721.084 1481.51 615.944M-10.9116 196.425C109.423 332.089 294.333 619.901 364.087 702.905C399.338 744.803 339.849 732.141 349.594 715.952C337.52 710.615 420.433 657.684 457.266 603.621C515.218 518.56 541.537 367.814 667.162 401.866C849.766 451.338 839.636 738.766 1025.72 811.12C1177.21 870.044 1360.88 750.297 1483.75 648.323M-10.9341 209.448C95.8791 350.856 261.209 620.466 340.392 695.579C378.626 731.869 337.543 718.371 353.709 699.536C348.735 691.735 422.627 643.348 458.465 594.645C517.14 514.919 550.242 382.443 666.823 413.759C846.397 462.078 832.356 754.276 1019.87 832.057C1171.65 895.006 1359.84 779.397 1485.96 680.565M-10.9565 222.494C82.3127 369.6 227.971 621.642 316.696 688.275C357.87 719.184 335.214 704.6 357.825 683.143C359.95 672.877 424.911 629.058 459.573 585.668C519.13 511.392 558.879 397.072 666.371 425.765C842.938 472.908 825.008 769.945 1013.94 853.108C1166.02 920.058 1358.73 808.61 1488.11 712.921M-10.9565 235.519C68.7689 388.367 194.688 623.428 293 680.95C337.136 706.772 336.163 694.29 361.94 666.751C372.68 655.264 427.262 614.746 460.884 576.715C521.436 508.023 567.697 411.656 666.122 437.726C839.682 483.671 817.84 785.502 1008.18 874.114C1160.6 945.066 1357.78 837.756 1490.44 745.232M-10.9775 248.609C55.2267 407.178 161.588 625.892 269.396 673.691C316.675 694.674 332.163 678.96 366.192 650.402C383.263 636.067 429.796 600.817 462.197 567.805C523.947 504.925 576.517 426.33 665.875 449.732C836.45 494.433 810.719 801.125 1002.46 895.163C1155.22 970.095 1356.86 866.99 1492.77 777.588M-11 261.567C41.683 425.879 128.802 628.675 245.587 666.299C296.167 682.601 328.817 664.038 370.194 633.943C393.89 616.691 432.148 586.777 463.283 558.785C526.412 502.009 585.177 440.712 665.4 461.559C833.081 504.745 803.529 816.276 996.489 916.035C1149.7 994.743 1355.71 896.001 1494.9 809.764M-11 274.59C28.1392 444.623 96.4236 631.84 221.891 658.972C383.942 694.132 508.889 433.679 665.061 473.564C829.712 515.643 796.203 832.103 990.656 937.084C1144.11 1019.98 1354.69 925.236 1497.14 842.119" stroke="url(#paint0_linear_520_695)" stroke-width="2" stroke-miterlimit="10"/>
<defs>
<linearGradient id="paint0_linear_520_695" x1="692" y1="636.5" x2="229.5" y2="190.5" gradientUnits="userSpaceOnUse">
<stop stop-color="#232323"/>
<stop offset="0.731859" stop-color="#232323" stop-opacity="0"/>
</linearGradient>
</defs>
</svg>
